<svg xmlns="http://www.w3.org/2000/svg" width="73" height="73" fill="none"><circle cx="36.5" cy="36.5" r="36.5" fill="#E01E2E"/><path fill="#fff" d="M53.318 44.455H19.682c-.446 0-.874.167-1.19.465A1.549 1.549 0 0 0 18 46.045c0 .422.177.827.493 1.125.315.299.743.466 1.189.466h33.636c.446 0 .874-.167 1.19-.466.315-.298.492-.703.492-1.125 0-.422-.177-.826-.493-1.125a1.732 1.732 0 0 0-1.189-.465Zm0 6.363H19.682c-.446 0-.874.168-1.19.466A1.549 1.549 0 0 0 18 52.41c0 .422.177.827.493 1.125.315.298.743.466 1.189.466h33.636c.446 0 .874-.168 1.19-.466.315-.298.492-.703.492-1.125 0-.422-.177-.826-.493-1.125a1.732 1.732 0 0 0-1.189-.466ZM26.41 28.546c-.332 0-.658.093-.934.268a1.613 1.613 0 0 0-.62.713c-.127.291-.16.611-.095.92.064.308.225.592.46.814.235.223.535.374.861.436.326.061.664.03.972-.09.307-.121.57-.325.755-.587a1.53 1.53 0 0 0 .283-.884c0-.422-.177-.826-.493-1.125a1.732 1.732 0 0 0-1.189-.465ZM49.955 19h-26.91a5.195 5.195 0 0 0-3.567 1.398A4.646 4.646 0 0 0 18 23.773V36.5c0 1.266.532 2.48 1.478 3.375a5.195 5.195 0 0 0 3.567 1.398h26.91a5.195 5.195 0 0 0 3.567-1.398A4.646 4.646 0 0 0 55 36.5V23.773c0-1.266-.532-2.48-1.478-3.375A5.195 5.195 0 0 0 49.955 19Zm1.681 17.5c0 .422-.177.827-.492 1.125a1.732 1.732 0 0 1-1.19.466H23.046c-.446 0-.873-.168-1.189-.466a1.548 1.548 0 0 1-.492-1.125V23.773c0-.422.177-.827.492-1.125a1.732 1.732 0 0 1 1.19-.466h26.909c.446 0 .873.167 1.189.466.315.298.492.703.492 1.125V36.5ZM36.5 25.364c-.998 0-1.973.28-2.803.804a4.84 4.84 0 0 0-1.858 2.142 4.533 4.533 0 0 0-.287 2.758 4.7 4.7 0 0 0 1.38 2.443 5.141 5.141 0 0 0 2.584 1.306c.978.184 1.993.09 2.915-.271a4.996 4.996 0 0 0 2.264-1.758c.554-.785.85-1.708.85-2.652 0-1.265-.531-2.48-1.477-3.374a5.196 5.196 0 0 0-3.568-1.398Zm0 6.363c-.333 0-.658-.093-.934-.268a1.614 1.614 0 0 1-.62-.714c-.127-.29-.16-.61-.096-.919.065-.309.226-.592.46-.815.236-.222.536-.374.862-.435a1.77 1.77 0 0 1 .972.09c.307.121.57.325.754.587.185.261.284.569.284.883 0 .422-.177.827-.493 1.125a1.732 1.732 0 0 1-1.189.466Zm10.09-3.181c-.332 0-.657.093-.934.268a1.614 1.614 0 0 0-.619.713c-.127.291-.16.611-.096.92.065.308.225.592.46.814.236.223.536.374.862.436.326.061.664.03.971-.09.308-.121.57-.325.755-.587a1.53 1.53 0 0 0 .284-.884c0-.422-.178-.826-.493-1.125a1.732 1.732 0 0 0-1.19-.465Z"/></svg>