<svg xmlns="http://www.w3.org/2000/svg" width="453" height="80" fill="none"><path fill="#fff" fill-rule="evenodd" d="M160.58 80H140.9v-3.052L175.23 0h8.69l33.99 76.948V80h-19.68l-18.31-44.745h-.57L160.58 80ZM100.09.909H97.8v18.417h2.29c25.51 0 25.51 42.257 0 42.257H97.8V79.99h2.29c52.17 0 52.17-79.091 0-79.091v.01Zm-15 0H64.62V79.99H85.1V19.326L85.09.909Z" clip-rule="evenodd"/><path fill="#fff" d="M52.9.899H32.31V80H52.9V.899ZM20.59.899H0V80h20.59V.899ZM250.51 23.079c.03 1.614-.21 3.222-.71 4.76a8.594 8.594 0 0 1-2.06 3.377 8.57 8.57 0 0 1-3.33 1.975 14.74 14.74 0 0 1-4.7.671h-4.51a1.16 1.16 0 0 1-.71-.256.979.979 0 0 1-.34-.879V13.964a.98.98 0 0 1 .34-.889 1.15 1.15 0 0 1 .71-.247h4.8a13.699 13.699 0 0 1 4.67.701 8.564 8.564 0 0 1 5.2 5.234c.464 1.391.68 2.851.64 4.316Zm-3 .118a11.508 11.508 0 0 0-.42-3.18 6.968 6.968 0 0 0-1.34-2.538 6.19 6.19 0 0 0-2.29-1.679 9.172 9.172 0 0 0-3.6-.602H237v16.403h2.91c1.164.03 2.325-.14 3.43-.504a5.689 5.689 0 0 0 2.34-1.54 6.682 6.682 0 0 0 1.4-2.607 12.75 12.75 0 0 0 .45-3.753h-.02ZM266.7 32.737a4 4 0 0 1 0 .513 1.127 1.127 0 0 1-.12.366.482.482 0 0 1-.19.207.404.404 0 0 1-.24.07h-10.2a1.189 1.189 0 0 1-.72-.258 1.052 1.052 0 0 1-.34-.878V13.993a1.05 1.05 0 0 1 .34-.888 1.18 1.18 0 0 1 .72-.247H266a.484.484 0 0 1 .24.059c.077.054.136.13.17.217.048.118.085.24.11.366.013.18.013.362 0 .543.012.167.012.336 0 .503a2.03 2.03 0 0 1-.11.366.415.415 0 0 1-.17.197.405.405 0 0 1-.24.07h-8.32v6.586h7.14c.083.002.163.03.23.08a.5.5 0 0 1 .18.197.99.99 0 0 1 .11.355c.011.181.011.363 0 .543.011.165.011.33 0 .494a.982.982 0 0 1-.11.346.415.415 0 0 1-.18.188.463.463 0 0 1-.23.059h-7.14V31.6h8.43a.484.484 0 0 1 .24.06.643.643 0 0 1 .19.207c.063.11.103.23.12.355.024.17.037.342.04.514ZM283.14 32.737c.017.17.017.342 0 .513a1.145 1.145 0 0 1-.14.326.556.556 0 0 1-.19.207.404.404 0 0 1-.24.07h-10.22a1.16 1.16 0 0 1-.71-.257.978.978 0 0 1-.34-.879V13.954a.98.98 0 0 1 .34-.889 1.15 1.15 0 0 1 .71-.247h10.1c.081 0 .16.02.23.06.08.053.143.129.18.217.049.117.082.24.1.365.035.179.052.36.05.543.001.17-.016.338-.05.504a1.496 1.496 0 0 1-.1.365.44.44 0 0 1-.18.198.392.392 0 0 1-.23.069h-8.32v6.587h7.13c.086 0 .17.028.24.079a.582.582 0 0 1 .18.197.99.99 0 0 1 .11.356c.011.18.011.362 0 .543.011.164.011.33 0 .494a.982.982 0 0 1-.11.345.453.453 0 0 1-.42.247h-7.13v7.614h8.43a.484.484 0 0 1 .24.06c.076.056.14.127.19.207a.99.99 0 0 1 .11.355c.029.17.042.342.04.514ZM300.81 19.04a7.322 7.322 0 0 1-.53 2.834 5.922 5.922 0 0 1-1.5 2.163 6.78 6.78 0 0 1-2.4 1.382c-1.098.346-2.247.51-3.4.484h-2.41v7.565a.35.35 0 0 1-.08.227.45.45 0 0 1-.23.158c-.136.046-.277.08-.42.098-.23.013-.46.013-.69 0a6.121 6.121 0 0 1-.68 0 2.335 2.335 0 0 1-.43-.098.412.412 0 0 1-.23-.158.339.339 0 0 1-.07-.227V14.082a1.109 1.109 0 0 1 .34-.918 1.2 1.2 0 0 1 .78-.277h5.87c.504.056 1.005.138 1.5.247.619.144 1.213.38 1.76.701.579.325 1.094.75 1.52 1.254a5.33 5.33 0 0 1 1 1.729c.227.718.328 1.47.3 2.222Zm-3 .227a4.338 4.338 0 0 0-.48-2.143 3.424 3.424 0 0 0-1.2-1.284 3.883 3.883 0 0 0-1.48-.533 9.77 9.77 0 0 0-1.49-.119h-2.61v8.424h2.54a5.95 5.95 0 0 0 2.13-.326 4.006 4.006 0 0 0 1.43-.899c.387-.393.684-.865.87-1.382a5.156 5.156 0 0 0 .31-1.738h-.02ZM329.1 23.079c.03 1.614-.21 3.222-.71 4.76a8.594 8.594 0 0 1-2.06 3.377A8.57 8.57 0 0 1 323 33.19a14.74 14.74 0 0 1-4.7.671h-4.51a1.16 1.16 0 0 1-.71-.256.979.979 0 0 1-.34-.879V13.964a.98.98 0 0 1 .34-.889 1.15 1.15 0 0 1 .71-.247h4.82a13.699 13.699 0 0 1 4.67.701 8.509 8.509 0 0 1 3.2 2.034 8.555 8.555 0 0 1 1.95 3.2c.474 1.39.7 2.85.67 4.316Zm-3 .118a11.142 11.142 0 0 0-.43-3.18 6.66 6.66 0 0 0-1.34-2.538 6.063 6.063 0 0 0-2.3-1.669 9.172 9.172 0 0 0-3.6-.602h-2.88V31.6h2.91c1.164.03 2.325-.14 3.43-.504a5.689 5.689 0 0 0 2.34-1.54 6.682 6.682 0 0 0 1.4-2.607c.349-1.22.514-2.485.49-3.753h-.02ZM336.28 33.468a.344.344 0 0 1-.07.227.412.412 0 0 1-.23.158c-.14.046-.284.08-.43.098a6.17 6.17 0 0 1-.68 0 6.322 6.322 0 0 1-.68 0 2.706 2.706 0 0 1-.44-.098.408.408 0 0 1-.23-.158.41.41 0 0 1-.07-.227V13.312a.406.406 0 0 1 .08-.237.547.547 0 0 1 .24-.148c.147-.044.298-.077.45-.099a4.03 4.03 0 0 1 .65 0 4.41 4.41 0 0 1 .68 0c.146.02.29.052.43.099.09.025.17.077.23.148.048.07.073.153.07.237v20.155ZM350.53 33.398a.675.675 0 0 1-.18.296.71.71 0 0 1-.32.178c-.172.05-.35.08-.53.09H347.61l-.34-.08a.874.874 0 0 1-.24-.099.557.557 0 0 1-.15-.158.855.855 0 0 1-.11-.217l-7-19.514a2.016 2.016 0 0 1-.13-.572.385.385 0 0 1 .13-.336.919.919 0 0 1 .48-.148h1.62c.143.012.284.041.42.089a.498.498 0 0 1 .22.177c.059.083.106.172.14.267l6.1 17.677 5.93-17.647a.97.97 0 0 1 .12-.297.492.492 0 0 1 .23-.177c.149-.048.304-.077.46-.09h.78c.27-.018.54-.018.81 0a.653.653 0 0 1 .4.159.394.394 0 0 1 .09.326 2.74 2.74 0 0 1-.16.582l-6.88 19.494ZM372.87 32.737a4 4 0 0 1 0 .513.97.97 0 0 1-.12.366.433.433 0 0 1-.19.207.393.393 0 0 1-.23.07h-10.24a1.21 1.21 0 0 1-.72-.258 1.05 1.05 0 0 1-.33-.878V13.993a1.054 1.054 0 0 1 .33-.889 1.2 1.2 0 0 1 .72-.246h10.09a.484.484 0 0 1 .24.059c.077.054.136.13.17.217.053.117.09.24.11.366.018.18.018.362 0 .543.017.167.017.336 0 .503a1.42 1.42 0 0 1-.11.366.415.415 0 0 1-.17.197.403.403 0 0 1-.24.07h-8.32v6.586H371a.463.463 0 0 1 .24.08.582.582 0 0 1 .18.197c.056.111.09.232.1.355.017.181.017.363 0 .543.017.165.017.33 0 .494a.974.974 0 0 1-.1.346.467.467 0 0 1-.18.188.535.535 0 0 1-.24.059h-7.14V31.6h8.44c.081 0 .16.02.23.06a.543.543 0 0 1 .19.207c.067.108.108.23.12.355.021.17.031.342.03.514ZM401.44 23.079c.03 1.614-.21 3.222-.71 4.76a8.594 8.594 0 0 1-2.06 3.377 8.417 8.417 0 0 1-3.33 1.975 14.702 14.702 0 0 1-4.7.671h-4.5a1.189 1.189 0 0 1-.72-.256 1.051 1.051 0 0 1-.34-.88V13.965a1.05 1.05 0 0 1 .34-.89c.205-.159.459-.245.72-.246H391a13.699 13.699 0 0 1 4.67.701 8.509 8.509 0 0 1 3.2 2.034 8.555 8.555 0 0 1 1.95 3.2c.457 1.393.667 2.852.62 4.316Zm-3 .118a11.475 11.475 0 0 0-.43-3.18 6.804 6.804 0 0 0-1.34-2.538 6.184 6.184 0 0 0-2.28-1.679 9.102 9.102 0 0 0-3.6-.602h-2.88v16.403h2.91c1.168.03 2.331-.14 3.44-.504a5.642 5.642 0 0 0 2.33-1.54A6.685 6.685 0 0 0 398 26.9c.333-1.206.491-2.453.47-3.703h-.03ZM421.23 32.904c.079.182.127.376.14.573a.377.377 0 0 1-.12.336.848.848 0 0 1-.44.138 5.95 5.95 0 0 1-.81 0h-.81a1.487 1.487 0 0 1-.46-.079.412.412 0 0 1-.23-.158.88.88 0 0 1-.14-.237l-1.83-5.115h-8.84l-1.75 5.046a.78.78 0 0 1-.13.257.584.584 0 0 1-.24.178c-.14.056-.289.09-.44.098-.25.019-.5.019-.75 0h-.78a.825.825 0 0 1-.43-.158.401.401 0 0 1-.11-.335c.018-.197.066-.39.14-.573l7.13-19.514c.04-.11.101-.21.18-.296a.828.828 0 0 1 .31-.178c.17-.045.344-.075.52-.089h1.69c.189.013.376.043.56.09a.873.873 0 0 1 .33.187c.076.092.137.195.18.306l7.13 19.523Zm-9.15-17.232-3.67 10.478h7.4l-3.73-10.478ZM435.48 14.082c.011.181.011.362 0 .543-.016.127-.053.25-.11.366a.504.504 0 0 1-.18.197.403.403 0 0 1-.24.07h-6v18.21a.405.405 0 0 1-.06.227.503.503 0 0 1-.23.158 2.705 2.705 0 0 1-.44.098 6.121 6.121 0 0 1-.68 0 6.27 6.27 0 0 1-.68 0 2.705 2.705 0 0 1-.44-.098.412.412 0 0 1-.23-.158.41.41 0 0 1-.07-.228v-18.21h-6a.403.403 0 0 1-.24-.069.415.415 0 0 1-.17-.197 2.028 2.028 0 0 1-.11-.366 4.101 4.101 0 0 1 0-.543 4.475 4.475 0 0 1 0-.543c.024-.128.061-.254.11-.375a.478.478 0 0 1 .17-.217.484.484 0 0 1 .24-.06h14.79a.484.484 0 0 1 .24.06.579.579 0 0 1 .18.217c.058.118.096.245.11.375.024.18.038.361.04.543ZM451.86 32.904c.07.185.117.377.14.573a.42.42 0 0 1-.13.336.837.837 0 0 1-.43.138 6.164 6.164 0 0 1-.82 0h-.81a1.548 1.548 0 0 1-.46-.079.45.45 0 0 1-.23-.158.88.88 0 0 1-.14-.237l-1.83-5.115h-8.84l-1.74 5.046a1.035 1.035 0 0 1-.13.257.757.757 0 0 1-.24.178c-.14.055-.289.089-.44.098-.25.018-.5.018-.75 0-.26.014-.52.014-.78 0a.766.766 0 0 1-.43-.158.439.439 0 0 1-.12-.335 2.41 2.41 0 0 1 .14-.573L441 13.37a.857.857 0 0 1 .17-.296.912.912 0 0 1 .31-.178c.171-.035.345-.055.52-.06H443.68c.189.014.376.043.56.09a.873.873 0 0 1 .33.187.772.772 0 0 1 .18.306l7.11 19.484Zm-9.16-17.232L439 26.15h7.39l-3.69-10.478ZM250.08 65.918c.074.183.122.376.14.573a.414.414 0 0 1-.12.335.874.874 0 0 1-.44.149h-1.63a2.023 2.023 0 0 1-.46-.09.567.567 0 0 1-.23-.148 1.81 1.81 0 0 1-.14-.246l-1.82-5.116h-8.84l-1.75 5.046a.697.697 0 0 1-.13.257.583.583 0 0 1-.24.178 1.657 1.657 0 0 1-.44.109c-.25.012-.5.012-.75 0a5.64 5.64 0 0 1-.78 0 .824.824 0 0 1-.43-.158.38.38 0 0 1-.11-.326c.013-.2.061-.398.14-.583l7.13-19.484a.98.98 0 0 1 .17-.286.71.71 0 0 1 .32-.178c.168-.056.343-.086.52-.089h1.69c.19.003.379.033.56.089a.67.67 0 0 1 .33.188c.076.088.137.188.18.296l7.13 19.484Zm-9.16-17.223-3.67 10.468h7.4l-3.73-10.468ZM269.71 65.75a1.3 1.3 0 0 1-.11.553 1.108 1.108 0 0 1-.29.375c-.118.097-.254.171-.4.217a1.733 1.733 0 0 1-.44.06h-.94a3.039 3.039 0 0 1-.77-.09 1.75 1.75 0 0 1-.63-.325 3.18 3.18 0 0 1-.6-.642 8.64 8.64 0 0 1-.63-.987l-6.49-11.95a26.14 26.14 0 0 1-1-1.975c-.32-.71-.67-1.333-1-1.975 0 .78 0 1.58.05 2.39s0 1.62 0 2.42v12.66c0 .08-.024.16-.07.227a.48.48 0 0 1-.24.158c-.14.045-.284.078-.43.099a4.436 4.436 0 0 1-.68 0c-.23.017-.46.017-.69 0a2.192 2.192 0 0 1-.42-.1.45.45 0 0 1-.23-.157.401.401 0 0 1-.07-.227V47.105a1.113 1.113 0 0 1 .37-.928c.234-.181.523-.279.82-.276h1.39c.275-.004.55.022.82.078.214.056.416.146.6.267.192.152.363.328.51.523.187.27.357.55.51.84l5 9.214c.31.563.6 1.115.89 1.649.29.533.56 1.066.83 1.59l.78 1.53c.26.504.52.988.77 1.521V46.414a.354.354 0 0 1 .07-.217.616.616 0 0 1 .23-.168c.142-.054.289-.09.44-.109.233-.012.467-.012.7 0 .22-.011.44-.011.66 0 .148.017.292.054.43.109a.616.616 0 0 1 .23.168c.043.065.067.14.07.217l-.04 19.336ZM291.29 65.918c.074.183.122.376.14.573a.414.414 0 0 1-.12.335.874.874 0 0 1-.44.149h-1.63a2.023 2.023 0 0 1-.46-.09.567.567 0 0 1-.23-.148 1.81 1.81 0 0 1-.14-.246l-1.82-5.116h-8.84L276 66.431a.696.696 0 0 1-.13.257.582.582 0 0 1-.24.178 1.657 1.657 0 0 1-.44.109c-.25.012-.5.012-.75 0a5.64 5.64 0 0 1-.78 0 .825.825 0 0 1-.43-.158.38.38 0 0 1-.11-.326c.013-.2.061-.398.14-.583l7.13-19.494a.98.98 0 0 1 .17-.286.71.71 0 0 1 .32-.178c.168-.056.343-.086.52-.089h1.69c.19.003.379.033.56.089a.67.67 0 0 1 .33.188c.076.088.137.188.18.296l7.13 19.484Zm-9.16-17.223-3.67 10.468h7.4l-3.73-10.468ZM305.87 65.69c.012.181.012.363 0 .544-.017.13-.054.256-.11.375a.62.62 0 0 1-.18.227.433.433 0 0 1-.25.07h-9.41a1.15 1.15 0 0 1-.71-.248.98.98 0 0 1-.34-.888V46.325a.339.339 0 0 1 .07-.227.409.409 0 0 1 .23-.158c.143-.046.291-.08.44-.099a6.24 6.24 0 0 1 .67 0c.23-.013.46-.013.69 0 .146.02.29.054.43.099.093.024.174.08.23.158.05.065.075.145.07.227v18.16h7.63c.09.001.177.029.25.08a.626.626 0 0 1 .18.207c.059.114.096.238.11.365.012.185.012.37 0 .554ZM313 58.739v7.742a.404.404 0 0 1-.06.227.45.45 0 0 1-.23.158 2.706 2.706 0 0 1-.44.099 4.433 4.433 0 0 1-.67 0 4.336 4.336 0 0 1-.68 0 2.706 2.706 0 0 1-.44-.1.41.41 0 0 1-.24-.157.41.41 0 0 1-.07-.227v-7.742l-6-11.85c-.1-.184-.174-.38-.22-.584a.33.33 0 0 1 .08-.325.9.9 0 0 1 .44-.149H306.13c.166.02.33.054.49.1a.51.51 0 0 1 .27.157c.069.08.126.17.17.267l2.94 6.044c.28.572.55 1.175.82 1.797.27.622.55 1.264.83 1.896.25-.612.51-1.225.77-1.837l.81-1.807 3-6.074a.995.995 0 0 1 .14-.276.451.451 0 0 1 .25-.168c.14-.046.284-.08.43-.099.236-.012.473-.012.71 0h.93a.92.92 0 0 1 .47.158.314.314 0 0 1 .09.326c-.05.196-.124.385-.22.563L313 58.738ZM333.8 61.01a6.03 6.03 0 0 1-.55 2.636 5.678 5.678 0 0 1-1.53 1.975 6.622 6.622 0 0 1-2.3 1.205 9.465 9.465 0 0 1-2.85.405 10.24 10.24 0 0 1-2-.178 11.317 11.317 0 0 1-1.63-.434 8.797 8.797 0 0 1-1.2-.533 3.365 3.365 0 0 1-.68-.474 1.255 1.255 0 0 1-.28-.494 2.915 2.915 0 0 1-.09-.8 3.257 3.257 0 0 1 0-.593c.012-.133.046-.263.1-.385a.385.385 0 0 1 .16-.207.567.567 0 0 1 .23 0c.238.032.463.127.65.276.349.216.71.414 1.08.593a9.893 9.893 0 0 0 1.58.612c.698.2 1.423.296 2.15.287a5.352 5.352 0 0 0 1.68-.247c.48-.147.928-.381 1.32-.692.363-.295.651-.67.84-1.096.207-.463.309-.965.3-1.471a2.775 2.775 0 0 0-.41-1.53 3.977 3.977 0 0 0-1.09-1.107 9.373 9.373 0 0 0-1.53-.879L326 57a19.855 19.855 0 0 1-1.76-.918 7.499 7.499 0 0 1-1.53-1.185 5.486 5.486 0 0 1-1.05-1.57 5.851 5.851 0 0 1 .07-4.543c.31-.67.768-1.265 1.34-1.738a5.957 5.957 0 0 1 2.06-1.057 8.978 8.978 0 0 1 4-.247 8.987 8.987 0 0 1 2.48.78c.231.112.449.248.65.406.076.074.143.157.2.246a.968.968 0 0 1 .08.227c.025.111.042.223.05.336v.504a4 4 0 0 1 0 .513c-.01.13-.034.26-.07.386a.472.472 0 0 1-.14.227.313.313 0 0 1-.21.069 1.38 1.38 0 0 1-.56-.227l-.95-.514a8.518 8.518 0 0 0-1.32-.513 5.79 5.79 0 0 0-1.72-.237 4.503 4.503 0 0 0-1.54.237 3.3 3.3 0 0 0-1.09.622c-.282.258-.5.575-.64.928a3.045 3.045 0 0 0-.21 1.136 2.682 2.682 0 0 0 .41 1.51c.291.435.661.814 1.09 1.117a9.568 9.568 0 0 0 1.55.888l1.78.83c.606.271 1.197.575 1.77.908a7 7 0 0 1 1.54 1.156c.461.46.834.998 1.1 1.59.292.677.435 1.407.42 2.143ZM340.67 66.48a.34.34 0 0 1-.07.228.409.409 0 0 1-.23.158c-.14.045-.284.078-.43.099a4.41 4.41 0 0 1-.68 0 4.487 4.487 0 0 1-.68 0 2.705 2.705 0 0 1-.44-.1.412.412 0 0 1-.23-.157.34.34 0 0 1-.07-.227V46.325a.35.35 0 0 1 .08-.227.483.483 0 0 1 .24-.158c.147-.044.298-.077.45-.099a5.73 5.73 0 0 1 .65 0 6.17 6.17 0 0 1 .68 0c.146.02.29.054.43.099.093.024.175.08.23.158.05.065.075.146.07.227v20.156ZM357.75 61.01a6.03 6.03 0 0 1-.55 2.637 5.679 5.679 0 0 1-1.53 1.975 6.62 6.62 0 0 1-2.3 1.204 9.51 9.51 0 0 1-2.85.405 10.233 10.233 0 0 1-2-.177 11.283 11.283 0 0 1-1.63-.435 8.81 8.81 0 0 1-1.2-.533 3.369 3.369 0 0 1-.68-.474 1.255 1.255 0 0 1-.28-.494 2.915 2.915 0 0 1-.09-.8 3.087 3.087 0 0 1 0-.593c.012-.132.045-.263.1-.385a.385.385 0 0 1 .16-.207.567.567 0 0 1 .23 0c.238.032.463.128.65.276.349.217.71.414 1.08.593a9.902 9.902 0 0 0 1.58.612c.698.2 1.423.297 2.15.287a5.352 5.352 0 0 0 1.68-.247c.48-.147.928-.381 1.32-.691.363-.296.651-.671.84-1.097.207-.463.309-.965.3-1.471a2.776 2.776 0 0 0-.41-1.53 4.117 4.117 0 0 0-1.09-1.107 9.373 9.373 0 0 0-1.53-.879L350 57a19.855 19.855 0 0 1-1.76-.918 7.499 7.499 0 0 1-1.53-1.185 5.485 5.485 0 0 1-1.1-1.57 5.851 5.851 0 0 1 .07-4.543 4.94 4.94 0 0 1 1.32-1.768 5.955 5.955 0 0 1 2.06-1.056 8.978 8.978 0 0 1 4-.247 8.975 8.975 0 0 1 2.48.78c.231.111.449.247.65.405.076.074.143.157.2.247a.967.967 0 0 1 .08.227 2.35 2.35 0 0 1 0 .336v.503a4 4 0 0 1 0 .514c-.01.13-.034.26-.07.385a.472.472 0 0 1-.14.227.313.313 0 0 1-.21.07 1.327 1.327 0 0 1-.56-.228l-1-.513a8.518 8.518 0 0 0-1.32-.514 5.79 5.79 0 0 0-1.72-.237 4.503 4.503 0 0 0-1.54.237 3.291 3.291 0 0 0-1.09.622c-.282.258-.5.575-.64.928a3.046 3.046 0 0 0-.21 1.136 2.682 2.682 0 0 0 .41 1.511c.291.435.661.813 1.09 1.116a9.56 9.56 0 0 0 1.55.889l1.78.83c.606.27 1.197.574 1.77.908a7.01 7.01 0 0 1 1.66 1.185c.461.46.834.998 1.1 1.59a5.16 5.16 0 0 1 .42 2.143Z"/></svg>