<svg xmlns="http://www.w3.org/2000/svg" width="680" height="658" fill="none"><path stroke="#DDD" d="M319.832 26.926c73.338 27.022 142.812 75.132 203.597 137.945 74.648 77.138 142.34 160.348 153.693 255.132 11.537 96.326-45.379 142.417-109.438 186.702-59.614 41.213-126.353 63.799-211.289 41.138-86.129-22.979-162.804-81.116-230.617-159.039C52.725 404.857 7.326 328.195 1.646 231.786c-5.68-96.41 26.082-172.763 96.614-210.05 61.055-32.276 141.024-24.489 221.572 5.19Z" clip-rule="evenodd"/><path stroke="#DDD" d="M355.777 137.502c57.76 20.563 112.32 55.099 159.91 99.173 58.443 54.126 79.088 105.553 87.392 169.331 8.44 64.815-18.905 101.408-69.834 128.85-47.396 25.539-101.297 21.778-168.253 3.738-67.896-18.294-112.763-44.358-165.8-98.777-57.136-58.625-81.558-108.334-85.368-173.006-3.811-64.673 18.108-100.843 74.103-123.385 48.471-19.513 104.411-28.509 167.85-5.924Z" clip-rule="evenodd"/><path stroke="#DDD" d="M416.224 472.462c-83.828-7.521-182.322-68.499-189.056-182.848-4.504-76.501 95.65-84.985 175.447-48.266 60.995 28.068 117.883 69.7 129.864 135.128 13.52 73.826-49.114 102.009-116.255 95.986Z"/></svg>