<svg xmlns="http://www.w3.org/2000/svg" width="73" height="73" fill="none"><circle cx="36.5" cy="36.5" r="36.5" fill="#E01E2E"/><path fill="#fff" d="M48.6 19.85c-3.06 0-5.55 2.49-5.55 5.55 0 .929.252 1.79.655 2.562l-2.065 2.409A7.355 7.355 0 0 0 37.5 29.1c-1.367 0-2.636.4-3.737 1.047l-2.616-2.616c.52-.935.796-1.986.803-3.056A6.482 6.482 0 0 0 25.475 18 6.482 6.482 0 0 0 19 24.475a6.482 6.482 0 0 0 6.475 6.475c1.112 0 2.142-.307 3.056-.803l2.616 2.616A7.348 7.348 0 0 0 30.1 36.5c0 1.844.703 3.513 1.822 4.812l-3.13 3.13.046.046A5.48 5.48 0 0 0 26.4 43.9c-3.06 0-5.55 2.49-5.55 5.55 0 3.06 2.49 5.55 5.55 5.55 3.06 0 5.55-2.49 5.55-5.55 0-.88-.224-1.7-.588-2.438l.046.046 3.615-3.615c.779.278 1.604.457 2.477.457 4.081 0 7.4-3.319 7.4-7.4a7.327 7.327 0 0 0-.812-3.302l2.318-2.705a5.492 5.492 0 0 0 2.194.457c3.06 0 5.55-2.49 5.55-5.55 0-3.06-2.49-5.55-5.55-5.55ZM26.4 51.3a1.85 1.85 0 1 1 0-3.7 1.85 1.85 0 0 1 0 3.7Zm-3.7-26.825a2.778 2.778 0 0 1 2.775-2.775 2.778 2.778 0 0 1 2.775 2.775 2.778 2.778 0 0 1-2.775 2.775 2.778 2.778 0 0 1-2.775-2.775ZM37.5 40.2c-2.04 0-3.7-1.66-3.7-3.7s1.66-3.7 3.7-3.7 3.7 1.66 3.7 3.7-1.66 3.7-3.7 3.7Zm11.1-12.95a1.85 1.85 0 1 1 0-3.7 1.85 1.85 0 0 1 0 3.7Z"/></svg>