<svg xmlns="http://www.w3.org/2000/svg" width="93" height="93" fill="none"><circle cx="46.5" cy="46.5" r="46.5" fill="#E01E2E"/><path fill="#fff" d="M67.52 59.593V33.406c0-5.677-9.624-10.475-21.02-10.475-11.396 0-21.02 4.798-21.02 10.475v26.188c0 5.677 9.624 10.474 21.02 10.474 11.396 0 21.02-4.797 21.02-10.474ZM46.5 28.17c9.698 0 15.584 3.946 15.765 5.222-.18 1.306-6.067 5.253-15.765 5.253s-15.584-3.947-15.765-5.222c.18-1.307 6.067-5.253 15.765-5.253ZM30.735 40.233c3.886 2.218 9.556 3.648 15.765 3.648 6.209 0 11.88-1.43 15.765-3.648v6.251c-.18 1.307-6.067 5.253-15.765 5.253S30.916 47.791 30.735 46.5v-6.267Zm0 19.36v-6.266c3.886 2.218 9.556 3.648 15.765 3.648 6.209 0 11.88-1.43 15.765-3.648v6.25c-.18 1.308-6.067 5.254-15.765 5.254s-15.584-3.947-15.765-5.238Z"/></svg>